<?xml version="1.0" encoding="UTF-8" standalone="no"?>
<svg xmlns:svg="http://www.w3.org/2000/svg" xmlns="http://www.w3.org/2000/svg"
  version="1.0" width="1040" height="630" viewBox="-100 -120 1040 630">
  <!-- horizontal: 10 per binary unit, x=0 at the start of the code for the "9" -->
  <defs />
  <rect x="-100" y="-120" width="1040" height="630" style="fill:#ffffff;stroke:none" />
<!--  Numbers:  5   9 0 1 2 3 4   1 2 3 4 5 7  Coding
         5 only the type
         = startcode 101
         9 left odd  0001011
         0 left even 0100111
         1 left even 0110011
         2 left odd  0010011
         3 left odd  0111101
         4 left even 0011101
         = center    01010 
         1 right     1100110
         2 right     1101100
         3 right     1000010
         4 right     1011100
         5 right     1001110
         7 right     1000100
         = end code  101
-->
  <g style="fill:#000000;stroke:none;"> <!-- "5" leftmost outside -->
    <g transform="translate(-30,0)">  <!-- Startcode: bin 101 -->
      <rect x="0"  y="-100" width="10" height="590" />
      <rect x="20" y="-100" width="10" height="590" />
    </g>
    <g> <!-- Code for "9 left odd" Binary code:  0001011 -->
      <rect x="30" y="-100" width="10" height="500" />
      <rect x="50" y="-100" width="20" height="500" />
    </g>
    <g transform="translate(70,0)"> <!-- Code for "0 left even". Binary code:  0100111 -->
      <rect x="10" y="-100" width="10" height="500" />
      <rect x="40" y="-100" width="30" height="500" />
    </g>
    <g transform="translate(140,0)"> <!-- Code for "1 left even". Binary code: 0110011 -->
      <rect x="10" y="-100" width="20" height="500" />
      <rect x="50" y="-100" width="20" height="500" />
    </g>
    <g transform="translate(210,0)"> <!-- Code for "2 left odd". Binary code: 0010011   -->
      <rect x="20" y="-100" width="10" height="500" />
      <rect x="50" y="-100" width="20" height="500" />
    </g>
    <g transform="translate(280,0)"> <!-- Code for "3 left odd". Binary code: 0111101  -->
      <rect x="10" y="-100" width="40" height="500" />
      <rect x="60" y="-100" width="10" height="500" />
    </g>
    <g transform="translate(350,0)"> <!-- Code for "4 left even". Binary code: 0011101  -->
      <rect x="20" y="-100" width="30" height="500" />
      <rect x="60" y="-100" width="10" height="500" />
    </g>
    <g transform="translate(420,0)"> <!-- Code for center bars. Binary code:  01010 -->
      <rect x="10" y="-100" width="10" height="590" />
      <rect x="30" y="-100" width="10" height="590" />
    </g>
    <g transform="translate(470,0)"> <!-- Code for "1 right". Binary code: 1100110  -->
      <rect x="0"  y="-100" width="20" height="500" />
      <rect x="40" y="-100" width="20" height="500" />
    </g>
    <g transform="translate(540,0)"> <!-- Code for "2 right". Binary code: 1101100  -->
      <rect x="0"  y="-100" width="20" height="500" />
      <rect x="30" y="-100" width="20" height="500" />
    </g>
    <g transform="translate(610,0)"> <!-- Code for "3 right". Binary code: 1000010  -->
      <rect x="0"  y="-100" width="10" height="500" />
      <rect x="50" y="-100" width="10" height="500" />
    </g>
    <g transform="translate(680,0)"> <!-- Code for "4 right". Binary code:1011100   -->
      <rect x="0"  y="-100" width="10" height="500" />
      <rect x="20" y="-100" width="30" height="500" />
    </g>
    <g transform="translate(750,0)"> <!-- Code for "5 right". Binary code: 1001110  -->
      <rect x="0"  y="-100" width="10" height="500" />
      <rect x="30" y="-100" width="30" height="500" />
    </g>
    <g transform="translate(820,0)"> <!-- Code for "7 right". Binary code: 1000100  -->
      <rect x="0"  y="-100" width="10" height="500" />
      <rect x="40" y="-100" width="10" height="500" />
    </g>
    <g transform="translate(890,0)"> <!-- Code for End bars. Binary code: 101 -->
      <rect x="0"  y="-100" width="10" height="590" />
      <rect x="20" y="-100" width="10" height="590" />
    </g>
  </g>
</svg>
